# xmcd CD database file
#
# Track frame offsets:
#	150
#	32702
#	49200
#	71015
#	94807
#	98702
#	131690
#	150025
#	167007
#	182892
#
# Disc length: 2685 seconds
#
# Revision: 1
# Processed by: cddbd v1.5.1PL0 Copyright (c) Steve Scherf et al.
# Submitted via: CDex 1.51
#
DISCID=7c0a7b0a
DTITLE=中西俊博 - 太陽がいっぱい
DYEAR=1987
DGENRE=New Age
TTITLE0=海への一歩 -すべての夏をこの一日に-
TTITLE1=レイン・ダンス
TTITLE2=夏の朝に開くパレット
TTITLE3=砂に書いたもの
TTITLE4=とび魚と虹
TTITLE5=木の国の旅
TTITLE6=水面上には
TTITLE7=恋人とは…LOVERS…
TTITLE8=天国のいねむり男
TTITLE9=太陽がいっぱい
EXTD=YEAR: 1987
EXTT0=
EXTT1=
EXTT2=
EXTT3=
EXTT4=
EXTT5=
EXTT6=
EXTT7=
EXTT8=
EXTT9=
PLAYORDER=
